<svg width="46" height="46" viewBox="0 0 46 46" fill="none" xmlns="http://www.w3.org/2000/svg">
<path d="M41.6741 23.6344L24.4241 4.46775C23.6977 3.65892 22.3023 3.65892 21.5759 4.46775L4.32593 23.6344C4.07763 23.9096 3.91466 24.2511 3.85681 24.6172C3.79897 24.9833 3.84874 25.3584 4.00009 25.6968C4.30676 26.3887 4.99293 26.8333 5.75001 26.8333H9.58334V40.25C9.58334 40.7583 9.78528 41.2458 10.1447 41.6053C10.5042 41.9647 10.9917 42.1667 11.5 42.1667H17.25C17.7583 42.1667 18.2459 41.9647 18.6053 41.6053C18.9647 41.2458 19.1667 40.7583 19.1667 40.25V32.5833H26.8333V40.25C26.8333 40.7583 27.0353 41.2458 27.3947 41.6053C27.7542 41.9647 28.2417 42.1667 28.75 42.1667H34.5C35.0083 42.1667 35.4959 41.9647 35.8553 41.6053C36.2147 41.2458 36.4167 40.7583 36.4167 40.25V26.8333H40.25C40.6212 26.8349 40.9848 26.7285 41.2966 26.527C41.6083 26.3254 41.8547 26.0376 42.0057 25.6985C42.1566 25.3594 42.2057 24.9836 42.1468 24.6171C42.0879 24.2506 41.9237 23.9092 41.6741 23.6344Z" fill="#4460A9"/>
</svg>
