<svg width="46" height="46" viewBox="0 0 46 46" fill="none" xmlns="http://www.w3.org/2000/svg">
<path d="M39.6942 36.9725L33.1775 30.475C35.2801 27.7964 36.4209 24.4886 36.4167 21.0833C36.4167 18.0507 35.5174 15.0862 33.8325 12.5646C32.1477 10.043 29.753 8.07773 26.9512 6.91719C24.1494 5.75664 21.0663 5.45299 18.092 6.04463C15.1176 6.63627 12.3854 8.09663 10.241 10.241C8.09663 12.3854 6.63627 15.1176 6.04463 18.092C5.45299 21.0663 5.75664 24.1494 6.91719 26.9512C8.07773 29.753 10.043 32.1477 12.5646 33.8325C15.0862 35.5174 18.0507 36.4167 21.0833 36.4167C24.4886 36.4209 27.7964 35.2801 30.475 33.1775L36.9725 39.6942C37.1507 39.8738 37.3627 40.0164 37.5962 40.1137C37.8298 40.211 38.0803 40.2611 38.3333 40.2611C38.5864 40.2611 38.8369 40.211 39.0704 40.1137C39.304 40.0164 39.516 39.8738 39.6942 39.6942C39.8738 39.516 40.0164 39.304 40.1137 39.0704C40.211 38.8369 40.2611 38.5864 40.2611 38.3333C40.2611 38.0803 40.211 37.8298 40.1137 37.5962C40.0164 37.3627 39.8738 37.1507 39.6942 36.9725ZM9.58334 21.0833C9.58334 18.8089 10.2578 16.5854 11.5214 14.6943C12.7851 12.8031 14.5811 11.3291 16.6825 10.4587C18.7838 9.58832 21.0961 9.36058 23.3269 9.80431C25.5577 10.248 27.6068 11.3433 29.2151 12.9516C30.8234 14.5599 31.9186 16.609 32.3624 18.8398C32.8061 21.0706 32.5784 23.3828 31.708 25.4842C30.8375 27.5856 29.3636 29.3816 27.4724 30.6452C25.5812 31.9089 23.3578 32.5833 21.0833 32.5833C18.0334 32.5833 15.1083 31.3717 12.9516 29.2151C10.7949 27.0584 9.58334 24.1333 9.58334 21.0833Z" fill="#4460A9"/>
</svg>
